Coordinates
version=1
nRows=5
nColumns=42
inDegrees=yes

Units are S.I. units (second, meters, Newtons, ...)
If the header above contains a line with 'inDegrees', this indicates whether rotational values are in degrees (yes) or radians (no).

endheader
time	pelvis_tilt	pelvis_list	pelvis_rotation	pelvis_tx	pelvis_ty	pelvis_tz	hip_flexion_r	hip_adduction_r	hip_rotation_r	knee_angle_r	knee_adduction_r	knee_angle_r_beta	ankle_angle_r	subtalar_angle_r	mtp_angle_r	hip_flexion_l	hip_adduction_l	hip_rotation_l	knee_angle_l	knee_adduction_l	knee_angle_l_beta	ankle_angle_l	subtalar_angle_l	mtp_angle_l	lumbar_extension	lumbar_bending	lumbar_rotation	arm_flex_r	arm_add_r	arm_rot_r	elbow_flex_r	pro_sup_r	wrist_flex_r	wrist_dev_r	arm_flex_l	arm_add_l	arm_rot_l	elbow_flex_l	pro_sup_l	wrist_flex_l	wrist_dev_l
      0.00000000	     14.50278197	     -2.43547066	      7.19707079	     -2.59529446	      0.87987595	      0.17431971	    -26.52455048	     10.51946288	    -25.07626004	      2.56761189	      1.60132989	      0.04481328	     24.28470921	     36.46274967	     -9.53047357	     12.45192574	     -2.27235711	    -14.32868849	     28.05480584	     -9.13407297	      0.48964873	     20.51218676	     19.74916126	     -9.53047357	    -40.59424267	      6.96166090	      2.23769357	     10.42237089	    -18.30959495	      8.22305437	     46.92172955	     90.00000001	      0.00000000	      0.00000000	      2.00848162	    -12.30670036	     -1.62610386	     46.11376401	     90.00000001	      0.00000000	      0.00000000
      0.01000000	     14.28584976	     -2.84196248	      7.45380390	     -2.58408339	      0.87734320	      0.17353009	    -27.18408828	     11.16596169	    -25.46723536	      2.32287623	      1.57965653	      0.04054184	     24.57913307	     36.53722145	     -9.49553167	     13.58721627	     -2.37877524	    -13.40088772	     25.89213022	     -8.18597344	      0.45190292	     19.49712570	     20.62566349	     -9.49553167	    -40.28445063	      7.40641970	      2.39575217	     10.88004903	    -18.57497795	      7.84811433	     47.26994790	     90.00000001	      0.00000000	      0.00000000	      1.36506405	    -12.10292910	     -1.90229756	     45.70004254	     90.00000001	      0.00000000	      0.00000000
      0.02000000	     14.18956481	     -3.01886756	      7.64123198	     -2.57242549	      0.87508164	      0.17247511	    -27.99119921	     11.40632724	    -26.29260661	      2.24364108	      1.79334729	      0.03915892	     24.53333362	     36.97079020	     -9.44747110	     14.30338599	     -2.21093765	    -12.73520236	     23.46403500	     -7.34625906	      0.40952467	     18.36639645	     21.82332519	     -9.44747110	    -40.07592698	      7.63263007	      2.42872608	     11.24217661	    -18.68530111	      7.02585510	     47.63495238	     90.00000001	      0.00000000	      0.00000000	      0.72523751	    -11.82197469	     -2.52602408	     45.13458216	     90.00000001	      0.00000000	      0.00000000
      0.03000000	     13.97565808	     -3.40541852	      7.82444755	     -2.56092102	      0.87256115	      0.17159786	    -28.51274830	     11.93961336	    -26.78473397	      2.32007865	      1.70751986	      0.04049301	     24.77513864	     37.16692147	     -9.41201755	     15.24114629	     -2.31922659	    -12.06450139	     21.43296641	     -6.50584517	      0.37407583	     17.61457661	     22.89961957	     -9.41201755	    -39.74143241	      8.02625006	      2.56772920	     11.57759591	    -18.83519870	      6.38385084	     48.01062878	     90.00000001	      0.00000000	      0.00000000	      0.11661125	    -11.55671556	     -2.95059208	     44.57041529	     90.00000001	      0.00000000	      0.00000000
      0.04000000	     13.77175121	     -3.64471946	      7.91045049	     -2.54921819	      0.87024102	      0.17060966	    -28.94860588	     12.15619623	    -27.52324961	      2.71991111	      1.70092518	      0.04747140	     24.87731694	     37.49751181	     -9.34986991	     15.99541909	     -2.22035046	    -11.68146875	     19.39925843	     -5.89624664	      0.33858093	     16.82769329	     24.18239683	     -9.34986991	    -39.43581699	      8.23678159	      2.67674188	     11.82249379	    -18.83666981	      5.28141371	     48.35309848	     90.00000001	      0.00000000	      0.00000000	     -0.39965628	    -11.18139601	     -3.71324352	     43.85506510	     90.00000001	      0.00000000	      0.00000000
